<svg width="1200" height="400" viewBox="0 0 1200 400" fill="none" xmlns="http://www.w3.org/2000/svg">
<path d="M30 209.512V171.445L172.996 253.93V291.988L30 209.512Z" fill="white"/>
<path d="M139.977 108.004L30 171.445L173.004 253.934V215.848L96.0234 171.453L172.992 127.039L139.977 108.004Z" fill="#E5E5E5"/>
<path d="M172.995 165.109V127.035L96.0078 171.445L129.008 190.473L172.995 165.109Z" fill="#BFBFBF"/>
<path d="M173.004 253.93V215.852L359.992 108.004V146.078L173.004 253.93Z" fill="#EE2B47"/>
<path d="M173.004 291.988V253.93L359.996 146.074V184.137L173.004 291.988Z" fill="#D4112D"/>
<path d="M436.988 190.48L359.996 146.074V108L502.988 190.477L392.992 253.855L360 234.895L436.988 190.48Z" fill="#E5E5E5"/>
<path d="M359.996 184.137V146.074L436.984 190.48L403.988 209.508L359.996 184.137Z" fill="white"/>
<path d="M392.992 253.852L359.992 234.895V272.957L392.992 291.914V253.852Z" fill="white"/>
<path d="M392.996 291.918V253.848L502.992 190.473V228.547L392.996 291.918Z" fill="#BFBFBF"/>
<path d="M591.191 292.93C579.082 292.93 561.113 290.195 537.285 284.727C536.113 280.039 534.941 274.473 533.77 268.027C532.793 261.387 531.914 255.137 531.133 249.277C530.547 243.418 530.254 239.414 530.254 237.266C530.645 235.703 532.207 234.922 534.941 234.922C540.02 234.922 542.852 235.703 543.438 237.266C544.219 240.781 545.586 244.688 547.539 248.984C549.492 253.086 552.227 257.48 555.742 262.168C559.062 267.051 563.555 271.055 569.219 274.18C575.078 277.109 581.621 278.574 588.848 278.574C598.027 278.574 605.645 275.84 611.699 270.371C617.754 264.902 620.781 256.699 620.781 245.762C620.781 237.949 618.438 231.895 613.75 227.598C609.258 223.105 604.375 219.004 599.102 215.293C597.734 214.512 595.586 213.242 592.656 211.484C589.727 209.727 586.797 207.969 583.867 206.211C581.133 204.258 578.984 202.891 577.422 202.109C573.711 199.766 570.586 197.812 568.047 196.25C565.703 194.688 563.457 193.125 561.309 191.562C559.16 189.805 556.523 187.656 553.398 185.117C547.148 180.039 542.266 174.277 538.75 167.832C535.43 161.387 533.77 154.258 533.77 146.445C533.77 136.68 536.602 127.891 542.266 120.078C548.125 112.07 555.645 105.82 564.824 101.328C574.004 96.6406 583.672 94.2969 593.828 94.2969C599.297 94.2969 604.082 94.5898 608.184 95.1758C612.285 95.7617 615.41 96.3477 617.559 96.9336C619.707 97.5195 622.344 98.2031 625.469 98.9844C628.594 99.7656 633.574 100.937 640.41 102.5C642.754 115.586 643.926 130.625 643.926 147.617C643.73 149.375 642.559 150.254 640.41 150.254C635.137 150.254 632.305 149.375 631.914 147.617C631.133 141.562 628.984 135.605 625.469 129.746C621.953 123.691 617.363 118.613 611.699 114.512C606.23 110.41 599.98 108.359 592.949 108.359C583.965 108.359 577.031 110.898 572.148 115.977C567.461 121.055 565.117 127.891 565.117 136.484C565.117 141.953 566.094 146.25 568.047 149.375C570 152.305 572.539 155.527 575.664 159.043C577.812 161.387 581.328 164.316 586.211 167.832C591.094 171.348 596.562 175.059 602.617 178.965C608.672 182.676 614.531 186.191 620.195 189.512C630.938 195.762 639.238 202.598 645.098 210.02C650.957 217.246 653.887 226.914 653.887 239.023C653.887 249.375 650.957 258.652 645.098 266.855C639.238 275.059 631.523 281.504 621.953 286.191C612.578 290.684 602.324 292.93 591.191 292.93ZM725.664 292.051C715.508 292.051 706.816 288.828 699.59 282.383C692.559 275.742 689.043 265.586 689.043 251.914V181.016H671.172C669.805 181.016 669.121 178.477 669.121 173.398C669.121 171.836 669.219 170.957 669.414 170.762C673.32 169.004 677.129 166.855 680.84 164.316C684.551 161.582 688.262 158.555 691.973 155.234C697.637 149.57 702.227 144.688 705.742 140.586C709.258 136.289 711.016 134.141 711.016 134.141C711.992 134.141 712.969 134.238 713.945 134.434C714.922 134.434 715.801 134.531 716.582 134.727C718.34 135.312 719.219 135.898 719.219 136.484V165.195H740.605C745.098 165.195 748.516 165.293 750.859 165.488C753.398 165.488 754.766 165.488 754.961 165.488C756.523 165.488 757.305 166.367 757.305 168.125C757.305 173.008 756.328 177.305 754.375 181.016H719.219V251.621C719.219 259.434 720.879 265.391 724.199 269.492C727.52 273.594 732.109 275.645 737.969 275.645C742.07 275.645 745.879 274.863 749.395 273.301C752.91 271.543 754.863 270.664 755.254 270.664C756.035 270.469 756.914 271.348 757.891 273.301C758.867 275.254 759.258 276.523 759.062 277.109C758.281 278.867 756.035 280.918 752.324 283.262C748.809 285.605 744.609 287.656 739.727 289.414C735.039 291.172 730.352 292.051 725.664 292.051ZM841.094 292.051C828.789 292.051 817.559 289.121 807.402 283.262C797.441 277.207 789.434 269.199 783.379 259.238C777.52 249.277 774.59 238.242 774.59 226.133C774.59 213.828 777.52 202.793 783.379 193.027C789.238 183.066 797.148 175.156 807.109 169.297C817.266 163.438 828.496 160.508 840.801 160.508C853.105 160.508 864.238 163.438 874.199 169.297C884.355 175.156 892.363 183.066 898.223 193.027C904.277 202.988 907.305 214.023 907.305 226.133C907.305 238.242 904.375 249.277 898.516 259.238C892.656 269.199 884.746 277.207 874.785 283.262C864.824 289.121 853.594 292.051 841.094 292.051ZM844.023 278.281C850.273 278.281 855.547 276.23 859.844 272.129C864.141 268.027 867.461 262.559 869.805 255.723C872.148 248.691 873.32 241.172 873.32 233.164C873.32 222.617 871.855 212.949 868.926 204.16C866.191 195.176 862.09 187.949 856.621 182.48C851.348 177.012 844.805 174.277 836.992 174.277C830.938 174.277 825.664 176.328 821.172 180.43C816.875 184.531 813.555 190 811.211 196.836C809.062 203.672 807.988 211.191 807.988 219.395C807.988 229.941 809.355 239.707 812.09 248.691C815.02 257.48 819.219 264.609 824.688 270.078C830.156 275.547 836.602 278.281 844.023 278.281ZM924.59 291.172C923.809 290.391 923.418 288.535 923.418 285.605C923.418 282.676 923.809 281.211 924.59 281.211C926.152 281.211 928.301 280.918 931.035 280.332C933.965 279.551 936.602 278.672 938.945 277.695C941.484 276.523 942.852 275.547 943.047 274.766C944.414 269.297 945.098 262.168 945.098 253.379V205.625C945.098 196.25 943.535 190 940.41 186.875C938.652 184.727 936.504 183.262 933.965 182.48C931.426 181.504 929.082 180.918 926.934 180.723C924.98 180.527 924.004 180.234 924.004 179.844C924.004 174.375 924.492 171.445 925.469 171.055C931.133 170.664 937.285 169.785 943.926 168.418C950.762 166.855 958.672 165.195 967.656 163.438C970.586 162.852 972.441 162.461 973.223 162.266C974.199 161.875 974.785 161.68 974.98 161.68C975.762 161.68 976.445 162.363 977.031 163.73C977.617 164.902 977.91 165.977 977.91 166.953C976.738 175.156 976.152 179.844 976.152 181.016C979.668 175.742 984.453 171.055 990.508 166.953C996.562 162.656 1002.71 160.508 1008.96 160.508C1019.71 160.508 1027.71 163.73 1032.99 170.176C1032.99 186.777 1028.3 195.078 1018.93 195.078C1015.61 195.078 1011.8 193.125 1007.5 189.219C1003.2 185.312 999.004 183.359 994.902 183.359C990.801 183.359 987.285 184.824 984.355 187.754C981.426 190.684 979.18 194.297 977.617 198.594C976.25 202.891 975.566 207.285 975.566 211.777V248.398C975.566 260.703 976.25 269.492 977.617 274.766C978.008 275.547 979.375 276.523 981.719 277.695C984.062 278.672 986.602 279.551 989.336 280.332C992.07 280.918 994.023 281.211 995.195 281.211C995.781 281.211 996.074 282.676 996.074 285.605C996.27 288.34 996.27 290.195 996.074 291.172C995.098 290.977 992.266 290.684 987.578 290.293C983.086 290.098 978.203 289.902 972.93 289.707C967.852 289.316 963.75 289.121 960.625 289.121C957.5 289.121 953.301 289.316 948.027 289.707C942.754 289.902 937.773 290.098 933.086 290.293C928.594 290.684 925.762 290.977 924.59 291.172ZM1110.92 291.758C1099.59 291.758 1089.14 288.926 1079.57 283.262C1070.2 277.402 1062.68 269.59 1057.01 259.824C1051.35 249.863 1048.52 238.926 1048.52 227.012C1048.52 213.73 1051.15 202.109 1056.43 192.148C1061.7 182.188 1068.83 174.473 1077.81 169.004C1086.99 163.34 1097.44 160.508 1109.16 160.508C1118.73 160.508 1126.93 162.266 1133.77 165.781C1140.61 169.297 1146.17 173.887 1150.47 179.551C1154.96 185.02 1158.18 190.879 1160.14 197.129C1162.29 203.184 1163.36 208.848 1163.36 214.121C1163.36 218.418 1162.58 221.152 1161.02 222.324C1159.65 223.301 1156.72 223.789 1152.23 223.789H1082.21C1080.84 223.789 1080.16 224.375 1080.16 225.547C1080.16 232.773 1081.43 239.609 1083.96 246.055C1086.5 252.695 1090.8 258.457 1096.86 263.34C1103.11 268.223 1110.53 270.664 1119.12 270.664C1124.2 270.664 1128.4 270.273 1131.72 269.492C1135.04 268.711 1138.26 267.832 1141.39 266.855C1142.95 266.27 1144.9 265.293 1147.25 263.926C1149.59 262.363 1151.74 260.996 1153.69 259.824C1155.64 258.457 1156.62 257.773 1156.62 257.773C1157.01 257.969 1157.5 258.555 1158.09 259.531C1158.67 260.508 1158.96 261.484 1158.96 262.461C1158.96 264.609 1158.38 266.465 1157.21 268.027C1155.25 271.543 1151.93 275.156 1147.25 278.867C1142.75 282.383 1137.38 285.41 1131.13 287.949C1124.88 290.488 1118.14 291.758 1110.92 291.758ZM1082.21 209.727H1129.67C1131.43 209.727 1132.3 208.262 1132.3 205.332C1132.3 200.645 1131.23 195.957 1129.08 191.27C1127.13 186.387 1124.2 182.285 1120.29 178.965C1116.58 175.645 1112.19 173.984 1107.11 173.984C1101.05 173.984 1095.98 176.035 1091.88 180.137C1087.97 184.238 1085.04 188.926 1083.09 194.199C1081.33 199.473 1080.45 203.965 1080.45 207.676C1080.45 209.043 1081.04 209.727 1082.21 209.727Z" fill="white"/>
</svg>
