<svg width="1200" height="400" viewBox="0 0 1200 400" fill="none" xmlns="http://www.w3.org/2000/svg">
<path d="M14 209.512V171.445L156.996 253.93V291.988L14 209.512Z" fill="white"/>
<path d="M123.977 108.004L14 171.445L157.004 253.934V215.848L80.0234 171.453L156.992 127.039L123.977 108.004Z" fill="#E5E5E5"/>
<path d="M156.995 165.109V127.035L80.0078 171.445L113.008 190.473L156.995 165.109Z" fill="#BFBFBF"/>
<path d="M157.004 253.93V215.852L343.992 108.004V146.078L157.004 253.93Z" fill="#EE2B47"/>
<path d="M157.004 291.988V253.93L343.996 146.074V184.137L157.004 291.988Z" fill="#D4112D"/>
<path d="M420.988 190.48L343.996 146.074V108L486.988 190.477L376.992 253.855L344 234.895L420.988 190.48Z" fill="#E5E5E5"/>
<path d="M343.996 184.137V146.074L420.984 190.48L387.988 209.508L343.996 184.137Z" fill="white"/>
<path d="M376.992 253.852L343.992 234.895V272.957L376.992 291.914V253.852Z" fill="white"/>
<path d="M376.996 291.918V253.848L486.992 190.473V228.547L376.996 291.918Z" fill="#BFBFBF"/>
<path d="M579.6 272H516.4C513.867 272 512 271.467 510.8 270.4C509.733 269.2 509.2 267.333 509.2 264.8V241.4C509.2 238.867 509.733 237.067 510.8 236C512 234.8 513.867 234.2 516.4 234.2H570.2C571.933 234.2 573.2 233.667 574 232.6C574.933 231.4 575.4 230 575.4 228.4C575.4 226.133 574.933 224.467 574 223.4C573.2 222.333 571.933 221.733 570.2 221.6L540.2 217.4C530.867 216.067 523.333 213 517.6 208.2C512 203.4 509.2 195.4 509.2 184.2V163.2C509.2 151.867 512.867 143.2 520.2 137.2C527.533 131.067 537.667 128 550.6 128H606.6C609.133 128 610.933 128.6 612 129.8C613.2 130.867 613.8 132.667 613.8 135.2V159C613.8 161.533 613.2 163.4 612 164.6C610.933 165.667 609.133 166.2 606.6 166.2H560C558.267 166.2 556.933 166.8 556 168C555.067 169.067 554.6 170.467 554.6 172.2C554.6 173.933 555.067 175.4 556 176.6C556.933 177.8 558.267 178.467 560 178.6L589.8 182.6C599.133 183.933 606.667 187 612.4 191.8C618.133 196.6 621 204.6 621 215.8V236.8C621 248.133 617.267 256.867 609.8 263C602.467 269 592.4 272 579.6 272ZM708.925 272H676.525C673.992 272 672.125 271.467 670.925 270.4C669.858 269.2 669.325 267.333 669.325 264.8V166.6H639.925C637.392 166.6 635.525 166.067 634.325 165C633.258 163.8 632.725 161.933 632.725 159.4V135.2C632.725 132.667 633.258 130.867 634.325 129.8C635.525 128.6 637.392 128 639.925 128H745.525C748.058 128 749.858 128.6 750.925 129.8C752.125 130.867 752.725 132.667 752.725 135.2V159.4C752.725 161.933 752.125 163.8 750.925 165C749.858 166.067 748.058 166.6 745.525 166.6H716.125V264.8C716.125 267.333 715.525 269.2 714.325 270.4C713.258 271.467 711.458 272 708.925 272ZM893.198 234.2C893.198 240.333 892.265 245.933 890.398 251C888.665 255.933 885.465 260.2 880.798 263.8C876.265 267.267 869.932 270 861.798 272C853.798 274 843.598 275 831.198 275C818.798 275 808.532 274 800.398 272C792.265 270 785.865 267.267 781.198 263.8C776.665 260.2 773.465 255.933 771.598 251C769.865 245.933 768.998 240.333 768.998 234.2V166C768.998 159.867 769.865 154.333 771.598 149.4C773.465 144.333 776.665 140 781.198 136.4C785.865 132.8 792.265 130 800.398 128C808.532 126 818.798 125 831.198 125C843.598 125 853.798 126 861.798 128C869.932 130 876.265 132.8 880.798 136.4C885.465 140 888.665 144.333 890.398 149.4C892.265 154.333 893.198 159.867 893.198 166V234.2ZM814.398 227C814.398 229.667 815.398 231.933 817.398 233.8C819.398 235.533 823.998 236.4 831.198 236.4C838.398 236.4 842.998 235.533 844.998 233.8C846.998 231.933 847.998 229.667 847.998 227V173.2C847.998 170.667 846.998 168.533 844.998 166.8C842.998 164.933 838.398 164 831.198 164C823.998 164 819.398 164.933 817.398 166.8C815.398 168.533 814.398 170.667 814.398 173.2V227ZM963.859 164V189.6H978.859C982.326 189.6 984.659 188.733 985.859 187C987.059 185.133 987.659 182.867 987.659 180.2V173.4C987.659 170.733 987.059 168.533 985.859 166.8C984.659 164.933 982.326 164 978.859 164H963.859ZM956.659 272H925.859C923.326 272 921.459 271.467 920.259 270.4C919.193 269.2 918.659 267.333 918.659 264.8V135.2C918.659 132.667 919.193 130.867 920.259 129.8C921.459 128.6 923.326 128 925.859 128H992.459C1007.39 128 1017.66 131.133 1023.26 137.4C1028.99 143.533 1031.86 151.533 1031.86 161.4V170.6C1031.86 176.2 1030.99 181 1029.26 185C1027.66 188.867 1024.79 191.667 1020.66 193.4C1027.86 194.2 1033.66 197.133 1038.06 202.2C1042.59 207.267 1044.86 214 1044.86 222.4V264.8C1044.86 267.333 1044.26 269.2 1043.06 270.4C1041.99 271.467 1040.19 272 1037.66 272H1006.66C1004.13 272 1002.26 271.467 1001.06 270.4C999.993 269.2 999.459 267.333 999.459 264.8V234.2C999.459 231.267 998.859 229.133 997.659 227.8C996.593 226.333 994.659 225.6 991.859 225.6H963.859V264.8C963.859 267.333 963.259 269.2 962.059 270.4C960.993 271.467 959.193 272 956.659 272ZM1167.29 272H1074.49C1071.96 272 1070.09 271.467 1068.89 270.4C1067.83 269.2 1067.29 267.333 1067.29 264.8V135.2C1067.29 132.667 1067.83 130.867 1068.89 129.8C1070.09 128.6 1071.96 128 1074.49 128H1167.29C1169.83 128 1171.63 128.6 1172.69 129.8C1173.89 130.867 1174.49 132.667 1174.49 135.2V158.6C1174.49 161.133 1173.89 163 1172.69 164.2C1171.63 165.267 1169.83 165.8 1167.29 165.8H1112.09V181.2H1151.09C1153.63 181.2 1155.43 181.8 1156.49 183C1157.69 184.067 1158.29 185.867 1158.29 188.4V209.8C1158.29 212.333 1157.69 214.2 1156.49 215.4C1155.43 216.467 1153.63 217 1151.09 217H1112.09V234.2H1167.29C1169.83 234.2 1171.63 234.8 1172.69 236C1173.89 237.067 1174.49 238.867 1174.49 241.4V264.8C1174.49 267.333 1173.89 269.2 1172.69 270.4C1171.63 271.467 1169.83 272 1167.29 272Z" fill="white"/>
</svg>
